<svg width="12" height="13" viewBox="0 0 12 13" fill="none" xmlns="http://www.w3.org/2000/svg">
<path d="M11.977 3.271L7.768 7.48C7.29869 7.94812 6.66287 8.21102 6 8.21102C5.33713 8.21102 4.70131 7.94812 4.232 7.48L0.023 3.271C0.016 3.35 0 3.4215 0 3.5V9.5C0.000793929 10.1628 0.264441 10.7982 0.73311 11.2669C1.20178 11.7356 1.8372 11.9992 2.5 12H9.5C10.1628 11.9992 10.7982 11.7356 11.2669 11.2669C11.7356 10.7982 11.9992 10.1628 12 9.5V3.5C12 3.4215 11.984 3.35 11.977 3.271Z" fill="#1C5A96"/>
<path d="M7.06107 6.773L11.6281 2.2055C11.4068 1.83866 11.0948 1.53502 10.7221 1.32387C10.3493 1.11271 9.92846 1.00117 9.50007 1H2.50007C2.07168 1.00117 1.65082 1.11271 1.27808 1.32387C0.905346 1.53502 0.59331 1.83866 0.37207 2.2055L4.93907 6.773C5.22086 7.05366 5.60236 7.21123 6.00007 7.21123C6.39778 7.21123 6.77928 7.05366 7.06107 6.773Z" fill="#1C5A96"/>
</svg>
