<svg width="188" height="61" viewBox="0 0 188 61" fill="none" xmlns="http://www.w3.org/2000/svg">
<mask id="mask0_5517_860" style="mask-type:luminance" maskUnits="userSpaceOnUse" x="0" y="0" width="177" height="61">
<path d="M177 0H0V61H177V0Z" fill="white"/>
</mask>
<g mask="url(#mask0_5517_860)">
<path d="M114.58 0.720682H100.218C100.058 0.720682 99.9783 0.800757 99.9783 0.960909C99.5793 7.44704 98.3824 14.4938 96.6272 20.1791V20.4193C96.7069 20.4994 96.7867 20.4994 96.8665 20.4994H101.813C101.893 20.4994 102.053 20.4193 102.053 20.3392C103.409 15.935 104.526 10.1696 104.925 5.28499H109.633V20.2591C109.633 20.4193 109.712 20.4994 109.872 20.4994H114.58C114.739 20.4994 114.819 20.4193 114.819 20.2591V1.04099C114.819 0.880833 114.739 0.720682 114.58 0.720682ZM175.299 0.720682H170.591C170.431 0.720682 170.352 0.800757 170.352 0.960909V15.855C169.315 16.1753 168.277 16.2554 167.161 16.2554C164.048 16.2554 163.33 15.2944 163.33 11.1305V1.04099C163.33 0.880833 163.251 0.800758 163.09 0.800758H158.384C158.224 0.800758 158.144 0.880833 158.144 1.04099V11.7711C158.144 18.4975 160.379 21.14 166.203 21.14C169.475 21.14 173.225 20.2591 175.379 19.4583C175.458 19.4583 175.539 19.2983 175.539 19.2181V1.04099C175.539 0.880833 175.458 0.720682 175.299 0.720682ZM75.9619 0.800758H71.1746C71.0149 0.800758 70.9352 0.880833 70.9352 0.960909C70.2171 3.92372 68.7011 8.8884 66.6267 14.0934L61.8393 0.880833C61.8393 0.800757 61.6797 0.720682 61.6 0.720682H56.8126C56.7329 0.720682 56.653 0.800758 56.5733 0.800758C56.4935 0.880833 56.4935 0.960909 56.5733 1.04099L63.7543 20.7396C63.0361 22.261 62.318 23.5422 61.6797 24.7434C61.201 25.6243 60.7223 26.5051 60.2436 27.4659C60.1637 27.5461 60.2436 27.6261 60.2436 27.7061C60.3233 27.7863 60.4031 27.8663 60.4829 27.8663H65.6691C65.749 27.8663 65.8287 27.7863 65.9085 27.7061C66.7862 26.0247 67.9032 23.6224 68.9405 21.2201C71.9725 14.0132 74.4459 7.28688 76.281 1.12106C76.281 1.04098 76.281 0.960909 76.2013 0.880833C76.1215 0.800757 76.0417 0.800758 75.9619 0.800758ZM93.0366 15.935C93.0366 15.855 92.9569 15.7749 92.8771 15.7749H92.6378C91.5206 16.1753 89.3664 16.5757 87.8504 16.5757C84.5791 16.5757 83.0631 15.6948 83.0631 10.6501C83.0631 6.64629 83.5418 4.72446 87.8504 4.72446C89.0472 4.72446 90.2441 4.88462 91.6802 5.36507C91.8398 5.36507 91.9196 5.36507 91.9993 5.20493C92.5579 4.16394 93.1962 2.9628 93.9143 1.36129V1.12106C93.9143 1.04098 93.8345 0.960909 93.7548 0.960909C91.8398 0.320304 89.5259 0 87.5312 0C80.6694 0 77.6375 3.20302 77.6375 10.4899C77.6375 17.8569 80.6694 21.14 87.5312 21.14C89.2068 21.14 92.6378 20.7396 94.2335 20.099C94.393 20.0189 94.393 19.9389 94.393 19.7787L93.0366 15.935ZM137.638 0.800758H132.851C132.771 0.800758 132.612 0.880833 132.612 0.960909C131.894 3.92372 130.378 8.8884 128.303 14.0934L123.516 0.880833C123.516 0.800757 123.356 0.720682 123.277 0.720682H118.489C118.409 0.720682 118.33 0.800758 118.25 0.800758C118.17 0.880833 118.17 0.960909 118.25 1.04099L125.431 20.7396C124.713 22.261 123.995 23.4622 123.356 24.7434C122.878 25.6243 122.399 26.5051 121.92 27.4659C121.84 27.5461 121.92 27.6261 121.92 27.7061C122 27.7863 122.08 27.8663 122.16 27.8663H127.346C127.426 27.8663 127.505 27.7863 127.585 27.7061C128.463 26.0247 129.58 23.6224 130.617 21.2201C133.649 14.0132 136.122 7.28688 137.878 1.12106C137.878 1.04098 137.878 0.960909 137.798 0.880833C137.798 0.800757 137.718 0.800758 137.638 0.800758ZM155.192 0.720682H141.309C141.15 0.720682 141.069 0.800757 141.069 0.960909V20.2591C141.069 20.4193 141.15 20.4994 141.309 20.4994H146.016C146.175 20.4994 146.256 20.4193 146.256 20.2591V5.36507H153.516C153.597 5.36507 153.756 5.28499 153.756 5.20493C154.315 3.92372 154.873 2.48235 155.431 1.12106V0.880833C155.352 0.800757 155.271 0.720682 155.192 0.720682Z" fill="#EE3F58"/>
<path d="M24.9738 16.7359C21.8621 16.7359 20.9046 15.8551 20.9046 10.6501C20.9046 5.04478 21.9418 4.56431 24.9738 4.56431C28.0058 4.56431 29.1228 5.04478 29.1228 10.6501C29.1228 15.9351 28.0856 16.7359 24.9738 16.7359ZM24.9738 0.160154C18.1919 0.160154 15.5587 3.04288 15.5587 10.57C15.5587 18.1772 18.1919 21.14 24.9738 21.14C31.7559 21.14 34.4687 18.1772 34.4687 10.57C34.4687 3.12296 31.7559 0.160154 24.9738 0.160154ZM53.1392 15.9351C53.1392 15.8551 53.0595 15.7749 52.9796 15.7749H52.7403C51.6232 16.1753 49.4689 16.5757 47.9529 16.5757C44.6817 16.5757 43.1657 15.6949 43.1657 10.6501C43.1657 6.64629 43.6444 4.72447 47.9529 4.72447C49.1498 4.72447 50.3466 4.88462 51.7828 5.36507C51.8626 5.36507 52.0222 5.36507 52.102 5.20493C52.6605 4.16394 53.2988 2.96281 54.0169 1.36129V1.12106C54.0169 1.04099 53.9372 0.960912 53.8573 0.960912C52.0222 0.400382 49.7083 0.0800781 47.7136 0.0800781C40.8518 0.0800781 37.8199 3.2831 37.8199 10.57C37.8199 17.937 40.8518 21.22 47.7136 21.22C49.3892 21.22 52.82 20.8196 54.4159 20.179C54.5755 20.099 54.5755 20.019 54.5755 19.8588L53.1392 15.9351ZM14.1226 0.720684H0.239365C0.0797887 0.720684 0 0.880836 0 1.04099V20.3392C0 20.4994 0.0797887 20.5794 0.239365 20.5794H4.94689C5.10648 20.5794 5.18626 20.4994 5.18626 20.3392V5.36507H12.447C12.5268 5.36507 12.6066 5.28501 12.6864 5.20493C13.2449 3.92372 13.8034 2.48234 14.3619 1.12106V0.880836C14.2822 0.80076 14.2023 0.720684 14.1226 0.720684Z" fill="#1666B0"/>
<path d="M0 55.8004V39.291H5.39342C7.43725 39.291 8.76952 39.3736 9.39023 39.5388C10.344 39.7865 11.1426 40.3271 11.7861 41.1604C12.4294 41.9863 12.7512 43.0561 12.7512 44.3699C12.7512 45.3834 12.5657 46.2356 12.1948 46.9263C11.8239 47.617 11.3508 48.1613 10.7755 48.5593C10.2078 48.9496 9.62869 49.2086 9.03824 49.3363C8.23586 49.4939 7.0739 49.5728 5.55239 49.5728H3.36096V55.8004H0ZM3.36096 42.0838V46.7686H5.2004C6.5251 46.7686 7.41076 46.6823 7.85737 46.5096C8.30398 46.337 8.6522 46.0667 8.90199 45.6988C9.15936 45.3309 9.28804 44.903 9.28804 44.415C9.28804 43.8144 9.11016 43.3189 8.75438 42.9284C8.39861 42.5381 7.9482 42.2941 7.40318 42.1965C7.00199 42.1214 6.19582 42.0838 4.98466 42.0838H3.36096Z" fill="#1666B0"/>
<path d="M21.8803 52.0252L25.0596 52.5545C24.6509 53.7107 24.0036 54.5928 23.1179 55.2009C22.2398 55.8015 21.1384 56.1019 19.8137 56.1019C17.717 56.1019 16.1652 55.4224 15.1584 54.0635C14.3635 52.9749 13.9662 51.601 13.9662 49.9418C13.9662 47.9598 14.4885 46.4095 15.5331 45.2908C16.5777 44.1646 17.8986 43.6016 19.4958 43.6016C21.2899 43.6016 22.7054 44.1909 23.7425 45.3696C24.7795 46.5408 25.2753 48.3389 25.2299 50.7638H17.2363C17.259 51.7023 17.5164 52.4343 18.0084 52.9598C18.5004 53.4779 19.1136 53.7369 19.8478 53.7369C20.3474 53.7369 20.7676 53.6018 21.1082 53.3315C21.4488 53.0612 21.7062 52.6258 21.8803 52.0252ZM22.062 48.8269C22.0393 47.911 21.8008 47.2165 21.3467 46.7435C20.8924 46.263 20.3398 46.0228 19.6889 46.0228C18.9924 46.0228 18.4171 46.2743 17.963 46.7773C17.5088 47.2803 17.2855 47.9635 17.2931 48.8269H22.062Z" fill="#1666B0"/>
<path d="M27.762 43.6016H30.6914V53.0049H34.3931V43.6016H37.3339V53.0049H41.0241V43.6016H43.965V55.5613H27.762V43.6016Z" fill="#1666B0"/>
<path d="M49.6196 47.5205L46.7242 47.0025C47.0496 45.8464 47.6098 44.9905 48.4046 44.4349C49.1994 43.8793 50.3803 43.6016 51.9472 43.6016C53.3704 43.6016 54.4301 43.7705 55.1266 44.1083C55.8229 44.4387 56.3112 44.8628 56.5913 45.3808C56.8789 45.8915 57.0228 46.8336 57.0228 48.2075L56.9887 51.9013C56.9887 52.9523 57.0379 53.7295 57.1363 54.2325C57.2423 54.728 57.4353 55.261 57.7154 55.8316H54.5588C54.4755 55.6214 54.3734 55.3098 54.2522 54.8968C54.1992 54.7092 54.1614 54.5853 54.1387 54.5253C53.5936 55.0508 53.0109 55.4449 52.3901 55.7077C51.7694 55.9704 51.1071 56.1019 50.403 56.1019C49.1616 56.1019 48.1813 55.7678 47.4622 55.0995C46.7506 54.4314 46.3949 53.5868 46.3949 52.5657C46.3949 51.89 46.5576 51.2895 46.8831 50.7638C47.2086 50.2308 47.6628 49.8254 48.2457 49.5476C48.8361 49.2623 49.6839 49.0146 50.7891 48.8044C52.2803 48.5266 53.3136 48.2676 53.8889 48.0274V47.712C53.8889 47.1039 53.7375 46.6722 53.4347 46.417C53.1319 46.1542 52.5604 46.0228 51.7202 46.0228C51.1524 46.0228 50.7096 46.1354 50.3917 46.3607C50.0737 46.5784 49.8164 46.965 49.6196 47.5205ZM53.8889 50.0882C53.4802 50.2233 52.8329 50.3848 51.9472 50.5724C51.0616 50.7602 50.4825 50.9441 50.21 51.1242C49.7936 51.417 49.5855 51.7887 49.5855 52.2391C49.5855 52.6821 49.752 53.065 50.0851 53.3878C50.4182 53.7107 50.842 53.8721 51.3569 53.8721C51.9321 53.8721 52.4809 53.6844 53.0033 53.309C53.3893 53.0237 53.6429 52.6745 53.764 52.2617C53.8472 51.9914 53.8889 51.4771 53.8889 50.7189V50.0882Z" fill="#1666B0"/>
<path d="M67.1623 52.0252L70.3416 52.5545C69.9327 53.7107 69.2856 54.5928 68.3999 55.2009C67.5218 55.8015 66.4204 56.1019 65.0957 56.1019C62.9989 56.1019 61.4472 55.4224 60.4403 54.0635C59.6455 52.9749 59.2482 51.601 59.2482 49.9418C59.2482 47.9598 59.7705 46.4095 60.8151 45.2908C61.8597 44.1646 63.1806 43.6016 64.7778 43.6016C66.5719 43.6016 67.9874 44.1909 69.0244 45.3696C70.0615 46.5408 70.5573 48.3389 70.5118 50.7638H62.5183C62.541 51.7023 62.7984 52.4343 63.2904 52.9598C63.7824 53.4779 64.3956 53.7369 65.1298 53.7369C65.6294 53.7369 66.0496 53.6018 66.3901 53.3315C66.7308 53.0612 66.9882 52.6258 67.1623 52.0252ZM67.344 48.8269C67.3212 47.911 67.0828 47.2165 66.6287 46.7435C66.1744 46.263 65.6218 46.0228 64.9709 46.0228C64.2744 46.0228 63.6991 46.2743 63.2449 46.7773C62.7908 47.2803 62.5674 47.9635 62.575 48.8269H67.344Z" fill="#1666B0"/>
<path d="M72.8965 43.6016H76.8478L79.8454 51.9351L82.8658 43.6016H86.8059V55.5613H84.092V47.6895L81.1512 55.5613H78.4261L75.6216 47.6895V55.5613H72.8965V43.6016Z" fill="#1666B0"/>
<path d="M96.5254 43.6016H103.508C104.939 43.6016 106.01 43.8606 106.721 44.3786C107.434 44.8966 107.789 45.6774 107.789 46.721C107.789 47.3892 107.592 47.971 107.199 48.4665C106.813 48.962 106.325 49.2924 105.734 49.4575C106.567 49.6603 107.188 50.0394 107.596 50.5949C108.005 51.1505 108.209 51.7587 108.209 52.4193C108.209 53.3503 107.865 54.1085 107.176 54.6942C106.487 55.2723 105.469 55.5613 104.122 55.5613H96.5254V43.6016ZM99.7387 48.5679H101.794C102.786 48.5679 103.501 48.444 103.939 48.1963C104.387 47.9485 104.61 47.5581 104.61 47.025C104.61 46.522 104.402 46.1654 103.985 45.9552C103.577 45.7375 102.846 45.6286 101.794 45.6286H99.7387V48.5679ZM99.7387 53.5342H102.26C103.168 53.5342 103.83 53.4254 104.246 53.2076C104.663 52.9899 104.871 52.5995 104.871 52.0365C104.871 51.4508 104.633 51.0491 104.156 50.8314C103.678 50.6062 102.752 50.4936 101.374 50.4936H99.7387V53.5342Z" fill="#1666B0"/>
<path d="M110.571 43.6016H114.522L117.52 51.9351L120.54 43.6016H124.481V55.5613H121.767V47.6895L118.825 55.5613H116.1L113.296 47.6895V55.5613H110.571V43.6016Z" fill="#1666B0"/>
<path d="M134.677 52.0252L137.856 52.5545C137.448 53.7107 136.8 54.5928 135.914 55.2009C135.036 55.8015 133.934 56.1019 132.61 56.1019C130.514 56.1019 128.961 55.4224 127.955 54.0635C127.16 52.9749 126.762 51.601 126.762 49.9418C126.762 47.9598 127.285 46.4095 128.33 45.2908C129.374 44.1646 130.695 43.6016 132.292 43.6016C134.086 43.6016 135.502 44.1909 136.539 45.3696C137.576 46.5408 138.071 48.3389 138.027 50.7638H130.033C130.055 51.7023 130.313 52.4343 130.805 52.9598C131.297 53.4779 131.91 53.7369 132.644 53.7369C133.144 53.7369 133.564 53.6018 133.905 53.3315C134.245 53.0612 134.502 52.6258 134.677 52.0252ZM134.858 48.8269C134.836 47.911 134.597 47.2165 134.143 46.7435C133.689 46.263 133.136 46.0228 132.486 46.0228C131.789 46.0228 131.213 46.2743 130.759 46.7773C130.306 47.2803 130.081 47.9635 130.089 48.8269H134.858Z" fill="#1666B0"/>
<path d="M150.834 47.408L147.69 47.971C147.583 47.3479 147.341 46.8787 146.962 46.5633C146.592 46.248 146.107 46.0904 145.509 46.0904C144.714 46.0904 144.079 46.3644 143.601 46.9125C143.132 47.453 142.898 48.3614 142.898 49.6378C142.898 51.0566 143.136 52.059 143.613 52.6446C144.098 53.2301 144.744 53.5229 145.554 53.5229C146.16 53.5229 146.656 53.354 147.042 53.0162C147.428 52.6708 147.7 52.0815 147.86 51.2482L150.994 51.7774C150.668 53.2038 150.043 54.2812 149.119 55.0095C148.197 55.7377 146.958 56.1019 145.407 56.1019C143.643 56.1019 142.235 55.55 141.183 54.4464C140.138 53.3428 139.616 51.815 139.616 49.863C139.616 47.8884 140.142 46.3531 141.194 45.257C142.246 44.1534 143.669 43.6016 145.464 43.6016C146.932 43.6016 148.098 43.9169 148.961 44.5475C149.832 45.1707 150.455 46.1242 150.834 47.408Z" fill="#1666B0"/>
<path d="M151.833 43.6016H162.745V46.158H158.885V55.5613H155.694V46.158H151.833V43.6016Z" fill="#1666B0"/>
<path d="M171.647 52.0252L174.827 52.5545C174.417 53.7107 173.771 54.5928 172.885 55.2009C172.007 55.8015 170.905 56.1019 169.581 56.1019C167.484 56.1019 165.932 55.4224 164.925 54.0635C164.131 52.9749 163.733 51.601 163.733 49.9418C163.733 47.9598 164.255 46.4095 165.3 45.2908C166.345 44.1646 167.666 43.6016 169.263 43.6016C171.057 43.6016 172.472 44.1909 173.51 45.3696C174.547 46.5408 175.042 48.3389 174.997 50.7638H167.003C167.026 51.7023 167.283 52.4343 167.775 52.9598C168.268 53.4779 168.88 53.7369 169.615 53.7369C170.114 53.7369 170.534 53.6018 170.875 53.3315C171.216 53.0612 171.473 52.6258 171.647 52.0252ZM171.829 48.8269C171.806 47.911 171.568 47.2165 171.113 46.7435C170.659 46.263 170.107 46.0228 169.455 46.0228C168.759 46.0228 168.184 46.2743 167.73 46.7773C167.275 47.2803 167.052 47.9635 167.06 48.8269H171.829Z" fill="#1666B0"/>
</g>
</svg>
