<svg width="24" height="24" viewBox="0 0 24 24" fill="none" xmlns="http://www.w3.org/2000/svg">
<path d="M10.115 21.6105C10.721 22.1057 11.353 22.5583 12 23C12.6484 22.5641 13.2773 22.1005 13.885 21.6105C14.898 20.7867 15.8513 19.8935 16.738 18.9375C18.782 16.724 21 13.5153 21 9.9133C21 8.74278 20.7672 7.58374 20.3149 6.50233C19.8626 5.42092 19.1997 4.43832 18.364 3.61065C17.5282 2.78297 16.5361 2.12642 15.4442 1.67848C14.3522 1.23055 13.1819 1 12 1C10.8181 1 9.64778 1.23055 8.55585 1.67848C7.46392 2.12642 6.47177 2.78297 5.63604 3.61065C4.80031 4.43832 4.13738 5.42092 3.68508 6.50233C3.23279 7.58374 3 8.74278 3 9.9133C3 13.5153 5.218 16.7231 7.262 18.9375C8.14862 19.8939 9.10196 20.7864 10.115 21.6105ZM12 13.132C11.138 13.132 10.3114 12.7929 9.7019 12.1893C9.09241 11.5856 8.75 10.767 8.75 9.9133C8.75 9.05965 9.09241 8.24096 9.7019 7.63734C10.3114 7.03372 11.138 6.69461 12 6.69461C12.862 6.69461 13.6886 7.03372 14.2981 7.63734C14.9076 8.24096 15.25 9.05965 15.25 9.9133C15.25 10.767 14.9076 11.5856 14.2981 12.1893C13.6886 12.7929 12.862 13.132 12 13.132Z" fill="black"/>
</svg>
