<svg width="12" height="13" viewBox="0 0 12 13" fill="none" xmlns="http://www.w3.org/2000/svg">
<path d="M6 0.5C2.6915 0.5 0 3.1915 0 6.5C0 9.8085 2.6915 12.5 6 12.5C9.3085 12.5 12 9.8085 12 6.5C12 3.1915 9.3085 0.5 6 0.5ZM8.8325 8.7935L8.5715 9.0935C8.296 9.3695 7.933 9.5 7.5715 9.5C5.7145 9.5 3 6.9285 3 4.9285C3 4.567 3.1305 4.204 3.4065 3.9285L3.7065 3.6675C3.9295 3.4445 4.2915 3.4445 4.5145 3.6675L5.0145 4.3185C5.2375 4.5415 5.2375 4.9035 5.0145 5.1265L4.589 5.661C5.0395 6.783 5.8035 7.516 6.839 7.911L7.3735 7.4855C7.5965 7.2625 7.9585 7.2625 8.1815 7.4855L8.8325 7.9855C9.0555 8.2085 9.0555 8.5705 8.8325 8.7935Z" fill="#1C5A96"/>
</svg>
