<svg width="24" height="24" viewBox="0 0 24 24" fill="none" xmlns="http://www.w3.org/2000/svg">
<path d="M9.27109 20.897C8.61371 20.897 8.73174 20.6442 8.49579 20.0205L6.57422 13.6828L18.5081 6.23242L19.9072 6.60328L18.7441 9.77216L9.27109 20.897Z" fill="#464646"/>
<path d="M9.27441 20.8964C9.78009 20.8964 9.99925 20.6604 10.2858 20.3907C10.724 19.9693 16.3539 14.4912 16.3539 14.4912L12.8984 13.6484L9.69585 15.6711L9.27441 20.7278V20.8964Z" fill="#313131"/>
<path d="M9.60894 15.742L17.7672 21.7595C18.6943 22.2652 19.3686 22.0123 19.6045 20.8999L22.9251 5.25747C23.2623 3.89214 22.4027 3.28533 21.5092 3.68987L2.02376 11.2077C0.692147 11.747 0.708996 12.4887 1.78778 12.8089L6.79404 14.3766L18.374 7.0779C18.9135 6.74082 19.4192 6.9262 19.0146 7.29706L9.60894 15.742Z" fill="url(#paint0_linear_3173_15508)"/>
<defs>
<linearGradient id="paint0_linear_3173_15508" x1="14.4957" y1="12.262" x2="18.7097" y2="19.0044" gradientUnits="userSpaceOnUse">
<stop stop-color="#282828"/>
<stop offset="1"/>
</linearGradient>
</defs>
</svg>
