<svg width="40" height="40" viewBox="0 0 40 40" fill="none" xmlns="http://www.w3.org/2000/svg">
<path d="M40 20C40 31.05 31.05 40 20 40C8.95 40 0 31.05 0 20C0 8.95 8.95 0 20 0C31.05 0 40 8.95 40 20Z" fill="url(#paint0_linear_3137_15476)"/>
<path d="M16.3336 29.166C15.6836 29.166 15.8003 28.916 15.567 28.2993L13.667 22.0327L25.4669 14.666L26.8503 15.0327L25.7003 18.166L16.3336 29.166Z" fill="#C8DAEA"/>
<path d="M16.334 29.1666C16.834 29.1666 17.0507 28.9333 17.334 28.6666C17.7673 28.2499 23.334 22.8333 23.334 22.8333L19.9173 22L16.7507 24L16.334 28.9999V29.1666Z" fill="#A9C9DD"/>
<path d="M16.6666 24.0662L24.7333 30.0162C25.65 30.5162 26.3167 30.2662 26.55 29.1662L29.8333 13.6994C30.1667 12.3494 29.3167 11.7494 28.4333 12.1494L9.16657 19.5828C7.8499 20.1161 7.86656 20.8495 8.93323 21.1661L13.8833 22.7162L25.3333 15.4994C25.8667 15.1661 26.3667 15.3494 25.9667 15.7161L16.6666 24.0662Z" fill="url(#paint1_linear_3137_15476)"/>
<defs>
<linearGradient id="paint0_linear_3137_15476" x1="25.8617" y1="6.32167" x2="15.8617" y2="29.6547" gradientUnits="userSpaceOnUse">
<stop stop-color="#37AEE2"/>
<stop offset="1" stop-color="#1E96C8"/>
</linearGradient>
<linearGradient id="paint1_linear_3137_15476" x1="21.4985" y1="20.6253" x2="25.6652" y2="27.292" gradientUnits="userSpaceOnUse">
<stop stop-color="#EFF7FC"/>
<stop offset="1" stop-color="white"/>
</linearGradient>
</defs>
</svg>
