<svg width="40" height="40" viewBox="0 0 40 40" fill="none" xmlns="http://www.w3.org/2000/svg">
<path d="M40 20C40 31.05 31.05 40 20 40C8.95 40 0 31.05 0 20C0 8.95 8.95 0 20 0C31.05 0 40 8.95 40 20Z" fill="url(#paint0_linear_3136_15469)"/>
<path d="M21.2703 28.816C12.2439 28.816 7.09539 22.566 6.88086 12.166H11.4023C11.5508 19.7993 14.8841 23.0327 17.5243 23.6993V12.166H21.7819V18.7493C24.3892 18.466 27.1281 15.466 28.0522 12.166H32.3098C31.6002 16.2327 28.6299 19.2327 26.5177 20.466C28.6299 21.466 32.0129 24.0827 33.3 28.816H28.6134C27.6068 25.6493 25.0988 23.1993 21.7819 22.866V28.816H21.2703Z" fill="white"/>
<defs>
<linearGradient id="paint0_linear_3136_15469" x1="25.8617" y1="6.32167" x2="15.8617" y2="29.6547" gradientUnits="userSpaceOnUse">
<stop stop-color="#479DFF"/>
<stop offset="1" stop-color="#0077FF"/>
</linearGradient>
</defs>
</svg>
